# xmcd CD database file
#
# Track frame offsets:
#	150
#	22523
#	55325
#	87948
#	97410
#	126182
#	151551
#	170890
#	196704
#	220774
#
# Disc length: 3276 seconds
#
# Revision: 2
# Processed by: cddbd v1.4PL0 Copyright (c) Steve Scherf et al.
# Submitted via: CDex 1.40Beta9
#
DISCID=7b0cca0a
DTITLE=Various Artist - Kuch Kuch Hota Hai - Dil To Pagal Hai
DYEAR=1999
DGENRE=Soundtrack
TTITLE0=Kuch Kuch Hota Hai
TTITLE1=Koi Mil Gaya
TTITLE2=Sajanji Ghar Aaye
TTITLE3=Raghupati Raghav
TTITLE4=Ladki Badi Anjani Hai
TTITLE5=Dil To Pagal hai
TTITLE6=Bholi si Soorat
TTITLE7=Le Gayi
TTITLE8=Dholna
TTITLE9=Koi Ladki Hai
EXTD=YEAR: 1999 ID3G: 24
EXTT0=
EXTT1=
EXTT2=
EXTT3=
EXTT4=
EXTT5=
EXTT6=
EXTT7=
EXTT8=
EXTT9=
PLAYORDER=
